HIERARCHY
ROOT Hips
{
  OFFSET -43.3411 73.6987 0
  CHANNELS 6 Xposition Yposition Zposition Zrotation Xrotation Yrotation
  JOINT Bip01_Pelvis
  {
    OFFSET 0 0 0
    CHANNELS 6 Xposition Yposition Zposition Zrotation Xrotation Yrotation
    JOINT BN_Tail_01
    {
      OFFSET -18.6385 -9.591 -2.032e-005
      CHANNELS 6 Xposition Yposition Zposition Zrotation Xrotation Yrotation
      JOINT BN_Tail_02
      {
        OFFSET 20.9743 0 0
        CHANNELS 6 Xposition Yposition Zposition Zrotation Xrotation Yrotation
        JOINT BN_Tail_03
        {
          OFFSET 20.3015 0 0
          CHANNELS 6 Xposition Yposition Zposition Zrotation Xrotation Yrotation
          JOINT BN_Tail_04
          {
            OFFSET 21.6394 -9.91821e-005 0
            CHANNELS 6 Xposition Yposition Zposition Zrotation Xrotation Yrotation
            End Site
            {
              OFFSET 0 0 0
            }
          }
        }
      }
    }
    JOINT Bip01_Spine
    {
      OFFSET 22.1878 -0.659386 3.048e-005
      CHANNELS 6 Xposition Yposition Zposition Zrotation Xrotation Yrotation
      JOINT Bip01_R_Thigh
      {
        OFFSET -22.1873 0.677109 -17.1024
        CHANNELS 6 Xposition Yposition Zposition Zrotation Xrotation Yrotation
        JOINT Bip01_R_Calf
        {
          OFFSET 34.2647 0 0
          CHANNELS 6 Xposition Yposition Zposition Zrotation Xrotation Yrotation
          JOINT Bip01_R_HorseLink
          {
            OFFSET 20.4429 0 0
            CHANNELS 6 Xposition Yposition Zposition Zrotation Xrotation Yrotation
            JOINT Bip01_R_Foot
            {
              OFFSET 16.5673 0 0
              CHANNELS 6 Xposition Yposition Zposition Zrotation Xrotation Yrotation
              JOINT Bip01_R_Toe0
              {
                OFFSET 9.18784 6.94841 0
                CHANNELS 6 Xposition Yposition Zposition Zrotation Xrotation Yrotation
                JOINT Bip01_R_Toe0Nub
                {
                  OFFSET 1.01907 0 0
                  CHANNELS 6 Xposition Yposition Zposition Zrotation Xrotation Yrotation
                  End Site
                  {
                    OFFSET 0 0 0
                  }
                }
              }
            }
          }
        }
      }
      JOINT Bip01_L_Thigh
      {
        OFFSET -22.1873 0.67701 17.1024
        CHANNELS 6 Xposition Yposition Zposition Zrotation Xrotation Yrotation
        JOINT Bip01_L_Calf
        {
          OFFSET 34.2647 0 0
          CHANNELS 6 Xposition Yposition Zposition Zrotation Xrotation Yrotation
          JOINT Bip01_L_HorseLink
          {
            OFFSET 20.4429 0 0
            CHANNELS 6 Xposition Yposition Zposition Zrotation Xrotation Yrotation
            JOINT Bip01_L_Foot
            {
              OFFSET 16.5673 0 0
              CHANNELS 6 Xposition Yposition Zposition Zrotation Xrotation Yrotation
              JOINT Bip01_L_Toe0
              {
                OFFSET 9.18784 6.9484 1.14441e-005
                CHANNELS 6 Xposition Yposition Zposition Zrotation Xrotation Yrotation
                JOINT Bip01_L_Toe0Nub
                {
                  OFFSET 1.01907 0 0
                  CHANNELS 6 Xposition Yposition Zposition Zrotation Xrotation Yrotation
                  End Site
                  {
                    OFFSET 0 0 0
                  }
                }
              }
            }
          }
        }
      }
      JOINT Bip01_Spine1
      {
        OFFSET 39.3372 -0.0249863 0
        CHANNELS 6 Xposition Yposition Zposition Zrotation Xrotation Yrotation
        JOINT Bip01_Neck
        {
          OFFSET 34.2837 -15.5934 -4.318e-005
          CHANNELS 6 Xposition Yposition Zposition Zrotation Xrotation Yrotation
          JOINT Bip01_R_Clavicle
          {
            OFFSET -17.9452 -11.3131 -6.19287
            CHANNELS 6 Xposition Yposition Zposition Zrotation Xrotation Yrotation
            JOINT Bip01_R_UpperArm
            {
              OFFSET 17.4439 1.52588e-005 -2.28882e-005
              CHANNELS 6 Xposition Yposition Zposition Zrotation Xrotation Yrotation
              JOINT Bip01_R_Forearm
              {
                OFFSET 30.6251 1.14441e-005 0
                CHANNELS 6 Xposition Yposition Zposition Zrotation Xrotation Yrotation
                JOINT Bip01_R_Hand
                {
                  OFFSET 31.2039 0 0
                  CHANNELS 6 Xposition Yposition Zposition Zrotation Xrotation Yrotation
                  JOINT Bip01_R_Finger0
                  {
                    OFFSET 22.1039 0.255862 -0.37902
                    CHANNELS 6 Xposition Yposition Zposition Zrotation Xrotation Yrotation
                    JOINT Bip01_R_Finger0Nub
                    {
                      OFFSET 12.0552 0 0
                      CHANNELS 6 Xposition Yposition Zposition Zrotation Xrotation Yrotation
                      End Site
                      {
                        OFFSET 0 0 0
                      }
                    }
                  }
                }
              }
            }
          }
          JOINT Bip01_L_Clavicle
          {
            OFFSET -17.9452 -11.3132 6.19281
            CHANNELS 6 Xposition Yposition Zposition Zrotation Xrotation Yrotation
            JOINT Bip01_L_UpperArm
            {
              OFFSET 17.444 0 1.14441e-005
              CHANNELS 6 Xposition Yposition Zposition Zrotation Xrotation Yrotation
              JOINT Bip01_L_Forearm
              {
                OFFSET 30.6251 0 0
                CHANNELS 6 Xposition Yposition Zposition Zrotation Xrotation Yrotation
                JOINT Bip01_L_Hand
                {
                  OFFSET 31.204 0 0
                  CHANNELS 6 Xposition Yposition Zposition Zrotation Xrotation Yrotation
                  JOINT Bip01_L_Finger0
                  {
                    OFFSET 22.1039 0.255856 0.379024
                    CHANNELS 6 Xposition Yposition Zposition Zrotation Xrotation Yrotation
                    JOINT Bip01_L_Finger0Nub
                    {
                      OFFSET 12.0552 0 0
                      CHANNELS 6 Xposition Yposition Zposition Zrotation Xrotation Yrotation
                      End Site
                      {
                        OFFSET 0 0 0
                      }
                    }
                  }
                }
              }
            }
          }
          JOINT Bip01_Neck1
          {
            OFFSET 14.9359 -0.0106278 0
            CHANNELS 6 Xposition Yposition Zposition Zrotation Xrotation Yrotation
            JOINT Bip01_Head
            {
              OFFSET 14.3578 0.505501 0
              CHANNELS 6 Xposition Yposition Zposition Zrotation Xrotation Yrotation
              JOINT BN_Ear_L_01
              {
                OFFSET 3.76994 -2.35629 12.3444
                CHANNELS 6 Xposition Yposition Zposition Zrotation Xrotation Yrotation
                End Site
                {
                  OFFSET 0 0 0
                }
              }
              JOINT BN_Ear_R_01
              {
                OFFSET 3.76995 -2.35622 -12.3442
                CHANNELS 6 Xposition Yposition Zposition Zrotation Xrotation Yrotation
                End Site
                {
                  OFFSET 0 0 0
                }
              }
              JOINT BN_Mouth_01
              {
                OFFSET 11.8395 10.8645 1.27e-005
                CHANNELS 6 Xposition Yposition Zposition Zrotation Xrotation Yrotation
                JOINT BN_Tongue_01
                {
                  OFFSET 9.73752 3.21674 1.016e-005
                  CHANNELS 6 Xposition Yposition Zposition Zrotation Xrotation Yrotation
                  JOINT BN_Tongue_02
                  {
                    OFFSET 9.04304 0.053505 0
                    CHANNELS 6 Xposition Yposition Zposition Zrotation Xrotation Yrotation
                    End Site
                    {
                      OFFSET 0 0 0
                    }
                  }
                }
                JOINT BN_Beard_01
                {
                  OFFSET 6.93466 -0.751793 0
                  CHANNELS 6 Xposition Yposition Zposition Zrotation Xrotation Yrotation
                  JOINT BN_Beard_02
                  {
                    OFFSET 13.0965 1.52588e-005 0
                    CHANNELS 6 Xposition Yposition Zposition Zrotation Xrotation Yrotation
                    End Site
                    {
                      OFFSET 0 0 0
                    }
                  }
                }
              }
              JOINT Bip01_HeadNub
              {
                OFFSET 25.6158 0 0
                CHANNELS 6 Xposition Yposition Zposition Zrotation Xrotation Yrotation
                End Site
                {
                  OFFSET 0 0 0
                }
              }
            }
          }
        }
      }
    }
  }
}
MOTION
Frames:	4
Frame Time:	0.0333333
-43.3411 59.2349 1.37519 93.6159 -81.9825 -177.564 -3.8147e-006 4.76837e-007 -7.10543e-015 -92.9345 -22.518 -81.7382 -18.6385 -9.591 -8.88178e-016 -50.0638 0.326889 179.942 20.9743 0 -0.000609875 22.7721 0.200623 9.55994 20.3015 1.42109e-014 4.76837e-007 7.73176 2.53046 16.9741 21.6394 2.28882e-005 -9.53674e-007 10.2958 5.51745 30.7461 20.0428 -9.10545 2.8725 -15.6317 8.37453 -1.21638 -22.181 0.421276 -19.7851 -73.062 -6.82265 170.658 34.2647 7.10543e-015 -1.90735e-006 -54.7395 5.48335e-006 8.23679e-006 20.4429 3.8147e-006 -3.8147e-006 73.1282 1.093e-007 -4.66548e-007 16.5673 -1.42109e-014 -3.55271e-015 4.22714 6.55724 9.2785 9.18785 6.94838 -3.8147e-006 91.3394 6.90251e-008 3.80268e-007 1.01907 0 0 5.41844e-008 -1.28812e-008 5.69396e-009 -21.4611 5.40493 14.0472 -122.858 14.4121 -171.058 34.2647 -1.90735e-006 9.53674e-006 -106.707 -1.27499e-005 8.22105e-006 20.4429 5.72205e-006 -1.90735e-006 110.353 -3.25286e-006 -1.00807e-005 16.5673 -3.8147e-006 3.8147e-006 -29.0248 -5.21233 -4.21416 9.18784 6.94839 -3.8147e-006 89.9962 8.92485e-007 -1.11465e-006 1.01907 0 3.8147e-006 179.96 -2.69363e-005 1.77168e-005 39.331 -0.0241776 -0.000957489 -14.367 2.20452 5.49386 34.2892 -15.5917 4.57764e-005 30.6637 -0.373277 -6.42843 -21.7193 -1.57143 -3.79508 145.252 -33.9749 121.481 17.4439 -7.6294e-006 7.62939e-006 42.1489 6.81145 -101.78 30.6251 3.8147e-006 0 -21.6572 8.33617e-006 2.9632e-006 31.204 -3.55272e-015 -3.55271e-015 -37.0164 82.3874 9.55205 22.1039 0.255847 -0.379038 -8.70662 9.6567 -42.2509 12.0552 1.90735e-006 -1.13249e-006 179.96 1.52491e-005 -1.56297e-005 -20.3324 -1.65175 8.51244 154.596 43.6801 -106.613 17.4439 7.6294e-006 3.8147e-006 39.6617 -48.7679 87.1648 30.6251 -1.43051e-006 0 -63.1325 -8.12724e-006 -1.34694e-005 31.2039 -7.62941e-006 -3.81469e-006 -164.764 -73.5035 -163.118 22.1039 0.255849 0.379031 -10.7624 6.07328 10.0774 12.0552 -3.55272e-015 7.62938e-006 -1.41428e-006 1.01126e-005 3.19462e-007 14.9354 -0.0106354 0.000167847 1.28798 -0.903701 1.44067 14.3578 0.505471 8.88179e-016 -21.0984 -3.53519 1.6727 3.7699 -2.3563 12.3444 -172.201 32.7368 -81.1316 3.76993 -2.35624 -12.3442 5.88484 29.4885 114.375 11.8394 10.8645 0 -177.002 -3.76322 178.789 9.73753 3.21674 0 -2.85749 1.26532e-007 3.6323e-009 2.55462 -1.10587 -0.153761 4.77834 -2.94618 -1.72235 6.93468 -0.751793 9.53675e-007 -85.1773 -2.85033 -1.72699 13.0966 3.05176e-005 -2.38419e-007 -7.89265 -1.63549 -12.1212 25.6158 0 -2.38419e-007 -6.59263e-008 1.08709e-006 -6.07726e-008 
-43.3241 63.274 1.37519 116.86 -80.0538 -154.301 -3.8147e-006 4.76837e-007 0 -93.7115 -16.6727 -81.7549 -18.6385 -9.591 -7.10543e-015 -48.4692 0.327209 179.942 20.9743 0 -0.000609875 22.3181 0.123325 7.89773 20.3015 0 4.76837e-007 7.96142 2.75277 16.2727 21.6394 2.28882e-005 -9.53675e-007 9.80433 5.98682 30.1078 20.9216 -7.08699 2.97114 -12.3124 8.10719 -1.17354 -22.3029 -0.417006 -19.7562 -69.1236 -9.18919 174.52 34.2647 -1.42109e-014 -1.90735e-006 -47.586 6.46088e-006 7.48134e-006 20.4429 3.8147e-006 -3.8147e-006 67.0382 1.6615e-007 -4.48434e-007 16.5673 -1.42109e-014 0 1.86458 8.16306 7.78671 9.18785 6.94838 -3.82174e-006 92.6638 3.68104 4.11407 1.01907 -3.37508e-014 2.13163e-014 5.41844e-008 -1.28812e-008 5.69396e-009 -21.5992 4.40732 14.0997 -121.702 10.6859 -166.06 34.2647 -1.90735e-006 9.53674e-006 -97.8193 -1.11434e-005 1.00218e-005 20.4429 5.72205e-006 -1.90735e-006 98.8826 -2.16021e-006 -1.01781e-005 16.5673 -3.8147e-006 3.8147e-006 -26.6883 -6.06832 -3.58916 9.18784 6.94839 -3.7967e-006 88.9887 -2.15701 -0.94573 1.01907 -2.44249e-014 3.8147e-006 179.96 -2.69362e-005 1.77167e-005 39.3336 -0.0241776 -0.000913861 -7.99351 2.09545 4.60738 34.2892 -15.5917 4.57741e-005 31.0673 -0.559933 -5.41719 -21.6696 -1.40215 -4.1562 145.354 -34.5401 122.433 17.4439 -7.6294e-006 7.62939e-006 42.9545 12.4227 -102.671 30.6251 3.8147e-006 -4.97379e-014 -23.9354 7.33426e-006 3.84771e-006 31.204 1.06582e-014 -7.10542e-015 -36.3775 82.2239 8.75192 22.1039 0.255847 -0.379038 -4.1738 16.806 -46.5052 12.0552 1.90735e-006 -1.13249e-006 179.96 1.52486e-005 -1.56292e-005 -20.4857 -1.52323 8.17499 153.677 44.9522 -104.591 17.4439 7.6294e-006 3.8147e-006 40.1144 -56.7588 84.3209 30.6251 -1.43051e-006 -1.42108e-014 -51.8443 -1.12835e-005 -1.29587e-005 31.2039 -7.62941e-006 -3.81469e-006 -156.788 -75.6339 -150.314 22.1039 0.255849 0.379031 -10.9515 6.19189 10.2612 12.0552 2.13163e-014 7.62938e-006 -1.41428e-006 1.01126e-005 3.19462e-007 14.9354 -0.0106354 0.000167847 2.62298 -0.539605 1.82541 14.3578 0.505471 1.58977e-009 -17.5473 0.170165 -2.63552 3.7699 -2.3563 12.3444 -173.76 31.3458 -80.042 3.76993 -2.35624 -12.3442 6.72135 28.6001 109.864 11.8394 10.8645 6.62527e-008 -176.861 -3.78309 178.799 9.73753 3.21674 1.3977e-008 -2.85749 2.47044e-007 1.60431e-008 2.55462 -1.10587 -0.153761 4.77834 -2.94618 -1.72235 6.93468 -0.751793 9.50408e-007 -74.0956 0.728613 -4.1466 13.0966 3.05176e-005 -2.38418e-007 -6.86086 -1.00485 -13.2855 25.6158 -1.42109e-014 -2.38419e-007 -6.59263e-008 1.08709e-006 -6.07726e-008 
-43.3075 68.2656 1.37519 134.116 -76.1092 -137.037 -3.8147e-006 4.76837e-007 7.10543e-015 -94.6155 -9.88536 -81.7524 -18.6385 -9.591 0 -46.2681 0.327408 179.941 20.9743 4.26326e-014 -0.000609875 21.6794 0.00279082 5.93067 20.3015 -2.84217e-014 4.76837e-007 8.26571 2.99285 15.2353 21.6394 2.28882e-005 -9.53675e-007 9.26733 6.46509 29.124 21.5292 -4.45511 3.06376 -8.53804 7.82507 -1.06008 -22.321 -1.54843 -19.7334 -62.9018 -12.102 179.634 34.2647 0 -1.90735e-006 -37.9856 7.6047e-006 6.27587e-006 20.4429 3.8147e-006 -3.8147e-006 60.783 2.43584e-007 -4.10394e-007 16.5673 -1.42109e-014 7.10543e-015 -2.34995 9.85548 5.72738 9.18785 6.94838 -3.84002e-006 93.9856 8.56932 9.38238 1.01907 -2.30926e-014 0 5.41844e-008 -1.28812e-008 5.69396e-009 -21.6941 3.10875 14.1472 -118.862 6.42899 -160.315 34.2647 -1.90735e-006 9.53674e-006 -86.359 -8.91239e-006 1.20456e-005 20.4429 5.72205e-006 -1.90735e-006 85.2418 1.71061e-007 -1.03439e-005 16.5673 -3.8147e-006 3.8147e-006 -23.7689 -6.96847 -3.01131 9.18784 6.94839 -3.7798e-006 87.9638 -4.25548 -1.91148 1.01907 -6.83898e-014 3.8147e-006 179.96 -2.6936e-005 1.77166e-005 39.3371 -0.0241776 -0.000868589 -0.288083 1.98523 3.6992 34.2892 -15.5917 4.57819e-005 31.4726 -0.728927 -4.15938 -21.573 -1.23358 -4.65605 145.616 -35.2501 123.618 17.4439 -7.6294e-006 7.62939e-006 44.9432 18.762 -103.941 30.6251 3.8147e-006 -9.94759e-014 -26.4777 6.13442e-006 4.25248e-006 31.204 3.01981e-014 0 -36.2749 82.202 8.69269 22.1039 0.255847 -0.379038 0.945631 23.4084 -51.1018 12.0552 1.90735e-006 -1.13249e-006 179.96 1.52485e-005 -1.56298e-005 -20.6744 -1.39054 7.69599 152.37 45.3385 -102.56 17.4439 7.6294e-006 3.8147e-006 39.4057 -66.3213 80.1706 30.6251 -1.43051e-006 -1.77636e-014 -38.9746 -1.49474e-005 -1.07898e-005 31.204 -7.62941e-006 -3.81469e-006 -145.806 -76.9541 -133.276 22.1039 0.255849 0.379031 -11.0633 6.26173 10.3692 12.0552 4.61854e-014 7.62938e-006 -1.41428e-006 1.01126e-005 3.19462e-007 14.9354 -0.0106354 0.000167847 4.07582 -0.169344 2.32277 14.3578 0.505471 5.00403e-009 -12.8895 3.46445 -8.16547 3.7699 -2.3563 12.3444 -175.806 29.3992 -78.8468 3.76994 -2.35624 -12.3442 7.69801 26.3305 104.949 11.8394 10.8645 4.01552e-008 -176.655 -3.79451 178.812 9.73753 3.21674 3.77189e-009 -2.85749 3.27907e-007 6.98156e-009 2.55462 -1.10587 -0.153761 4.77834 -2.94618 -1.72235 6.93468 -0.751793 9.52793e-007 -60.8305 4.03525 -7.53758 13.0966 3.05176e-005 -2.38418e-007 -5.62101 -0.214122 -14.5416 25.6158 -1.42109e-014 -2.38419e-007 -6.59263e-008 1.08709e-006 -6.07726e-008 
-43.291 75.8855 1.37519 147.511 -68.06 -123.702 -3.8147e-006 4.76837e-007 7.10543e-015 -96.0572 0.688234 -81.5647 -18.6385 -9.591 3.55271e-015 -42.203 0.327316 179.941 20.9743 4.26326e-014 -0.000609875 20.4747 -0.219426 2.95301 20.3015 2.84217e-014 4.76837e-007 8.78679 3.28369 13.2361 21.6394 2.28882e-005 -9.53675e-007 8.57302 7.01109 27.1744 21.7676 -0.383418 3.18179 -2.9058 7.44824 -0.840841 -22.1945 -3.34891 -19.7095 -48.695 -15.5011 -170.307 34.2647 1.42109e-014 -1.90735e-006 -18.0139 9.16534e-006 3.5703e-006 20.4429 3.8147e-006 -3.8147e-006 51.1462 1.51982e-006 5.81203e-007 16.5673 0 0 -11.5271 12.9083 1.95637 9.18785 6.94838 -3.88635e-006 95.2117 17.1141 18.3664 1.01907 -5.32907e-014 1.42109e-014 5.41844e-008 -1.28812e-008 5.69396e-009 -21.7035 1.08423 14.2046 -110.168 1.36988 -151.232 34.2647 -1.90735e-006 9.53674e-006 -62.8266 -3.54356e-006 1.46433e-005 20.4429 5.72205e-006 -1.90735e-006 61.4683 1.30538e-005 -4.70541e-006 16.5673 -3.8147e-006 3.8147e-006 -18.642 -8.41329 -2.0063 9.18784 6.94839 -3.76452e-006 86.4757 -7.13934 -3.32173 1.01907 -1.21514e-013 3.8147e-006 179.96 -2.69358e-005 1.77164e-005 39.3425 -0.0241776 -0.000716189 12.4988 1.73627 2.40922 34.2892 -15.5917 4.58169e-005 32.1226 -0.933792 -2.06675 -21.3978 -0.970859 -5.43979 146.138 -36.4788 125.596 17.4439 -7.6294e-006 7.62939e-006 50.0895 28.1529 -106.655 30.6251 3.8147e-006 -1.13687e-013 -30.162 4.40323e-006 3.71674e-006 31.204 -2.93099e-014 7.10542e-015 -36.9971 82.4288 9.85557 22.1039 0.255847 -0.379038 8.0001 30.6412 -57.041 12.0552 1.90736e-006 -1.13249e-006 179.96 1.52486e-005 -1.56312e-005 -20.9507 -1.16942 6.9332 149.722 43.9752 -99.9773 17.4439 7.6294e-006 3.8147e-006 19.2065 -82.1529 55.1215 30.6251 -1.43051e-006 -7.10542e-015 -18.0404 -1.82418e-005 -4.95068e-006 31.204 -7.62941e-006 -3.81469e-006 -132.763 -76.3533 -109.47 22.1039 0.255849 0.379031 -11.0514 6.25582 10.347 12.0552 -1.06582e-014 7.62938e-006 -1.41428e-006 1.01126e-005 3.19462e-007 14.9354 -0.0106354 0.000167847 6.23351 0.350717 3.19378 14.3578 0.505471 1.4346e-008 -4.9321 5.94414 -18.3294 3.7699 -2.3563 12.3444 -179.364 25.7109 -77.1758 3.76994 -2.35624 -12.3442 8.96291 20.2543 97.9007 11.8394 10.8645 -9.82503e-008 -176.263 -3.77494 178.837 9.73753 3.21674 -3.00558e-008 -2.85749 3.0721e-007 -2.30557e-008 2.55462 -1.10587 -0.153761 4.77834 -2.94618 -1.72235 6.93468 -0.751793 9.60699e-007 -39.0731 7.17083 -14.0483 13.0966 3.05176e-005 -2.38418e-007 -3.71867 1.09485 -16.1542 25.6158 -2.84217e-014 -2.38419e-007 -6.59263e-008 1.08709e-006 -6.07726e-008 
